<svg width="500" height="129" viewBox="0 0 500 129" fill="none" xmlns="http://www.w3.org/2000/svg">
<g id="Group 6">
<path id="Vector" d="M24.5526 24.6461C18.1526 31.1461 22.5526 41.7461 31.6526 41.7461C37.4526 41.7461 41.6526 37.5461 41.6526 31.7461C41.6526 22.6461 31.0526 18.2461 24.5526 24.6461ZM35.8526 27.4461C39.6526 30.8461 36.9526 37.7461 31.8526 37.7461C26.4526 37.7461 23.7526 31.5461 27.3526 27.5461C29.3526 25.3461 33.4526 25.2461 35.8526 27.4461Z" fill="black"/>
<path id="Vector_2" d="M30.0521 30.8461C29.0521 32.5461 31.3521 34.4461 32.7521 33.0461C33.9521 31.8461 33.1521 29.7461 31.6521 29.7461C31.1521 29.7461 30.4521 30.2461 30.0521 30.8461Z" fill="black"/>
<path id="gears" fill-rule="evenodd" clip-rule="evenodd" d="M24.1523 1.64612C15.7523 3.84612 7.85234 10.3461 3.55234 18.7461C0.252344 25.0461 0.152344 39.0461 3.25234 45.8461C3.81884 47.0284 7.42463 51.626 12.6652 58L21.2878 61.3224C21.5209 61.1816 22.2968 61.3794 23.8523 61.8461C28.8523 63.2461 35.8523 62.9461 41.7523 61.0461C49.3523 58.6461 58.5523 49.4461 60.9523 41.8461C62.8523 35.9461 63.1523 28.9461 61.7523 23.9461C61.6396 23.5938 61.5447 23.2792 61.4677 23.0004L61 21.4461L56.4108 11.5C56 11 46.8529 3.92763 45.7523 3.44612C40.7523 1.24612 29.2523 0.246121 24.1523 1.64612ZM57.5191 12.4164C57.5127 12.4058 57.5063 12.3954 57.5 12.3853L57.5191 12.4164ZM100.452 57.4461C101.252 59.9461 107.652 63.8461 107.652 61.8461L113.12 60.5C115.853 62.9826 117.873 64.8889 118.852 65.9461C123.252 70.7461 123.452 71.1461 122.252 73.6461C120.452 77.1461 122.552 82.2461 126.152 83.1461C128.552 83.7461 128.652 84.0461 128.652 91.7461C128.652 99.2461 128.552 99.7461 126.352 100.346C124.952 100.646 123.252 102.346 122.452 104.146C121.152 106.846 121.052 107.746 122.152 109.846C123.452 112.146 123.252 112.546 117.952 117.946C112.552 123.346 112.252 123.546 109.752 122.346C106.252 120.546 101.152 122.646 100.252 126.246C99.6523 128.646 99.3523 128.746 91.6523 128.746C83.9523 128.746 83.6523 128.646 83.0523 126.246C82.1523 122.646 77.0523 120.546 73.6523 122.346C71.2523 123.446 70.7523 123.246 66.4523 119.446C65.1812 118.295 62.9252 115.949 60 112.776L61.7523 107.746C62.1523 107.746 61.9523 106.346 61.3523 104.646C60.5523 102.646 59.1523 101.146 57.4523 100.546C54.7523 99.5461 54.6523 99.3461 54.6523 91.6461C54.6523 84.0461 54.7523 83.7461 57.1523 83.1461C60.7523 82.2461 62.8523 77.1461 61.0523 73.7461C59.8523 71.3461 60.1523 70.9461 65.3523 65.5461C70.7523 60.1461 71.0523 59.9461 73.5523 61.1461C77.0523 62.9461 82.1523 60.8461 83.0523 57.2461C83.6523 54.8461 83.9523 54.7461 91.5523 54.7461C99.2523 54.7461 99.4523 54.8461 100.452 57.4461ZM39.3523 19.7461C48.0523 24.9461 47.6523 39.5461 38.7523 44.2461C28.9523 49.2461 17.6523 42.6461 17.6523 31.9461C17.6523 23.4461 23.2523 17.7461 31.6523 17.7461C34.3523 17.7461 37.4523 18.5461 39.3523 19.7461ZM13.7523 36.4461C15.3523 42.5461 20.7523 47.9461 26.9523 49.6461C30.4523 50.6461 31.6523 51.5461 31.6523 52.8461C31.6523 55.1461 31.3523 55.1461 24.9523 53.2461C18.1523 51.2461 12.1523 45.2461 10.1523 38.4461C8.25234 31.9461 8.25234 31.7461 10.6523 31.7461C12.1523 31.7461 12.8523 32.8461 13.7523 36.4461ZM102.352 74.3461C111.552 79.6461 114.952 92.1461 109.652 101.746C101.852 115.646 82.0523 115.846 74.0523 102.146C70.8523 96.6461 70.3523 88.1461 72.9523 83.1461C75.0523 79.0461 81.9523 72.9461 85.3523 72.1461C86.9523 71.8461 88.6523 71.4461 89.1523 71.2461C91.3523 70.4461 98.4523 72.0461 102.352 74.3461Z" fill="black"/>
<path id="Vector_3" d="M88.1522 75.6461C74.8522 78.8461 70.7522 96.3461 81.2522 104.646C90.5522 111.946 104.552 107.346 107.552 95.9461C110.752 84.1461 99.9522 72.8461 88.1522 75.6461ZM100.852 83.6461C103.152 86.2461 103.652 87.7461 103.652 91.8461C103.652 96.3461 103.252 97.3461 100.252 100.346C97.4522 103.146 96.0522 103.746 92.7522 103.746C82.4522 103.746 76.5522 94.5461 81.1522 85.7461C83.3522 81.4461 87.2522 79.6461 93.0522 80.1461C97.1522 80.4461 98.5522 81.0461 100.852 83.6461Z" fill="black"/>
<path id="Vector_4" d="M86.1521 86.2461C81.0521 91.2461 84.6521 99.7461 91.9521 99.7461C96.4521 99.7461 99.6521 96.3461 99.6521 91.5461C99.6521 84.5461 91.0521 81.2461 86.1521 86.2461Z" fill="black"/>
<path id="Vector_5" d="M90.7522 7.7461C89.7522 10.7461 89.6522 10.8461 86.8522 9.3461C84.0522 7.9461 83.8522 7.9461 81.1522 10.7461C78.5522 13.4461 78.4522 13.9461 79.5522 16.3461C80.8522 19.1461 79.8522 20.6461 76.8522 20.7461C74.4522 20.7461 75.9522 22.4461 88.1522 33.1461C98.1522 41.8461 100.352 43.3461 101.252 42.1461C102.252 40.9461 102.852 40.9461 105.052 41.8461C107.452 42.9461 107.952 42.7461 110.652 40.2461C113.452 37.5461 113.452 37.3461 112.052 34.5461C110.552 31.7461 110.652 31.6461 113.652 30.6461C116.352 29.6461 116.652 29.1461 116.652 25.2461C116.652 21.5461 116.352 20.8461 114.152 20.3461C111.452 19.6461 111.152 18.6461 112.652 15.8461C113.952 13.4461 107.952 7.3461 105.652 8.7461C103.152 10.3461 101.752 9.8461 101.052 7.2461C100.552 5.0461 99.8522 4.7461 96.1522 4.7461C92.2522 4.7461 91.7522 5.0461 90.7522 7.7461ZM101.352 19.9461C104.552 22.9461 104.452 28.0461 101.052 31.4461C98.9522 33.5461 97.8522 33.8461 94.8522 33.4461C90.3522 32.6461 88.7522 31.0461 87.9522 26.5461C87.5522 23.5461 87.8522 22.4461 89.9522 20.3461C93.2522 17.0461 98.1522 16.8461 101.352 19.9461Z" fill="black"/>
<path id="Vector_6" d="M165.652 56.6461C165.652 59.1461 172.152 75.0461 173.352 75.4461C176.052 76.4461 175.852 74.7461 172.552 65.3461C169.952 58.1461 168.752 55.7461 167.452 55.7461C166.452 55.7461 165.652 56.1461 165.652 56.6461Z" fill="black"/>
<path id="Vector_7" d="M179.652 62.2461C179.652 70.5461 182.252 75.7461 186.252 75.7461C187.352 75.7461 186.452 71.8461 185.152 71.3461C184.052 70.9461 183.652 69.0461 183.652 63.2461C183.652 56.4461 183.452 55.7461 181.652 55.7461C179.852 55.7461 179.652 56.4461 179.652 62.2461Z" fill="black"/>
<path id="Vector_8" d="M192.652 63.1461C192.652 68.4461 192.252 70.8461 191.152 71.7461C189.452 73.1461 189.152 75.7461 190.652 75.7461C191.252 75.7461 192.852 74.6461 194.152 73.2461C196.352 71.1461 196.652 69.9461 196.652 63.2461C196.652 56.4461 196.452 55.7461 194.652 55.7461C192.852 55.7461 192.652 56.4461 192.652 63.1461Z" fill="black"/>
<path id="Vector_9" d="M201.652 57.2461C201.652 58.4461 203.252 58.7461 209.652 58.7461C216.052 58.7461 217.652 58.4461 217.652 57.2461C217.652 56.0461 216.052 55.7461 209.652 55.7461C203.252 55.7461 201.652 56.0461 201.652 57.2461Z" fill="black"/>
<path id="Vector_10" d="M224.552 58.6461C222.252 60.9461 221.652 62.4461 221.652 65.7461C221.652 69.0461 222.252 70.5461 224.552 72.8461C226.152 74.4461 227.952 75.7461 228.552 75.7461C230.452 75.7461 229.752 72.9461 227.152 70.3461C225.752 68.9461 224.652 66.9461 224.652 65.8461C224.652 64.7461 225.752 62.5461 227.152 60.9461C231.652 55.5461 229.552 53.6461 224.552 58.6461Z" fill="black"/>
<path id="Vector_11" d="M232.652 56.8461C232.652 57.5461 233.752 59.0461 235.152 60.3461C236.752 61.8461 237.652 63.7461 237.652 65.7461C237.652 67.7461 236.752 69.6461 235.152 71.1461C232.952 73.2461 231.852 75.7461 233.152 75.7461C235.252 75.7461 238.852 72.8461 240.152 70.2461C242.052 66.1461 242.052 64.4461 240.152 60.7461C238.052 56.7461 232.652 53.9461 232.652 56.8461Z" fill="black"/>
<path id="Vector_12" d="M242.652 65.7461C242.652 75.0461 242.752 75.7461 244.652 75.7461C246.452 75.7461 246.652 75.0461 246.752 68.9461C246.752 62.3461 246.752 62.2461 248.452 64.6461C253.252 71.6461 252.852 71.6461 257.252 64.6461C259.452 61.1461 261.652 57.6461 262.052 56.9461C262.552 56.1461 262.052 55.7461 260.752 55.7461C259.452 55.7461 257.852 57.2461 256.052 60.2461C254.652 62.7461 253.052 64.5461 252.652 64.2461C252.152 63.9461 250.752 61.9461 249.552 59.7461C247.952 56.8461 246.652 55.7461 244.952 55.7461C242.652 55.7461 242.652 55.9461 242.652 65.7461Z" fill="black"/>
<path id="Vector_13" d="M275.853 63.9461C277.553 68.5461 279.153 73.0461 279.353 73.9461C279.853 75.6461 283.653 76.5461 283.653 74.9461C283.653 74.5461 282.153 70.1461 280.353 65.2461C277.653 58.1461 276.553 56.1461 274.853 55.9461C272.853 55.6461 272.853 55.8461 275.853 63.9461Z" fill="black"/>
<path id="Vector_14" d="M287.652 57.2461C287.652 58.4461 289.252 58.7461 296.152 58.7461C303.052 58.7461 304.652 58.4461 304.652 57.2461C304.652 56.0461 303.052 55.7461 296.152 55.7461C289.252 55.7461 287.652 56.0461 287.652 57.2461Z" fill="black"/>
<path id="Vector_15" d="M309.652 57.2461C309.652 58.4461 311.252 58.7461 317.652 58.7461C324.052 58.7461 325.652 58.4461 325.652 57.2461C325.652 56.0461 324.052 55.7461 317.652 55.7461C311.252 55.7461 309.652 56.0461 309.652 57.2461Z" fill="black"/>
<path id="Vector_16" d="M334.552 58.6461C327.852 65.4461 332.952 75.7461 343.052 75.7461C348.252 75.7461 347.752 73.1461 342.452 72.4461C337.552 71.7461 335.652 69.7461 335.652 65.1461C335.652 61.1461 338.652 58.7461 343.352 58.7461C345.652 58.7461 346.652 58.2461 346.652 57.2461C346.652 56.1461 345.452 55.7461 342.052 55.7461C338.352 55.7461 336.952 56.2461 334.552 58.6461Z" fill="black"/>
<path id="Vector_17" d="M352.652 65.7461C352.652 73.9461 352.952 75.7461 354.152 75.7461C355.352 75.7461 355.652 73.9461 355.652 65.7461C355.652 57.5461 355.352 55.7461 354.152 55.7461C352.952 55.7461 352.652 57.5461 352.652 65.7461Z" fill="black"/>
<path id="Vector_18" d="M365.652 59.7461C365.652 63.5461 365.452 63.7461 362.652 63.7461C360.352 63.7461 359.652 64.1461 359.652 65.7461C359.652 67.3461 360.352 67.7461 362.652 67.7461C365.452 67.7461 365.652 67.9461 365.652 71.8461C365.652 75.1461 365.952 75.8461 367.452 75.5461C368.852 75.2461 369.152 73.8461 369.452 65.4461C369.752 56.2461 369.652 55.7461 367.652 55.7461C365.952 55.7461 365.652 56.3461 365.652 59.7461Z" fill="black"/>
<path id="Vector_19" d="M374.652 56.3461C374.652 57.7461 388.252 75.7461 389.352 75.7461C390.352 75.7461 390.652 73.2461 390.652 65.7461C390.652 57.6461 390.352 55.7461 389.152 55.7461C388.052 55.7461 387.652 57.3461 387.452 62.3461L387.152 69.0461L382.652 62.4461C380.052 58.5461 377.452 55.7461 376.452 55.7461C375.452 55.7461 374.652 55.9461 374.652 56.3461Z" fill="black"/>
<path id="Vector_20" d="M398.052 57.5461C393.652 61.0461 392.552 65.7461 395.052 70.6461C396.252 72.8461 400.252 75.7461 402.152 75.7461C403.452 75.7461 402.352 73.2461 400.152 71.1461C398.552 69.6461 397.652 67.7461 397.652 65.7461C397.652 63.7461 398.552 61.8461 400.152 60.3461C404.452 56.3461 402.552 53.8461 398.052 57.5461Z" fill="black"/>
<path id="Vector_21" d="M405.652 56.8461C405.652 57.4461 406.752 59.2461 408.152 60.9461C409.552 62.5461 410.652 64.7461 410.652 65.8461C410.652 66.9461 409.552 68.9461 408.152 70.3461C405.552 72.9461 404.852 75.7461 406.752 75.7461C407.352 75.7461 409.152 74.4461 410.752 72.8461C413.052 70.5461 413.652 69.0461 413.652 65.7461C413.652 62.4461 413.052 60.9461 410.752 58.6461C407.752 55.6461 405.652 54.9461 405.652 56.8461Z" fill="black"/>
<path id="Vector_22" d="M418.652 65.7461V75.7461H425.652C431.052 75.7461 432.652 75.4461 432.652 74.3461C432.652 73.2461 431.152 72.7461 427.452 72.5461L422.152 72.2461L421.852 63.9461C421.652 57.5461 421.252 55.7461 420.152 55.7461C418.952 55.7461 418.652 57.6461 418.652 65.7461Z" fill="black"/>
<path id="Vector_23" d="M440.953 57.5461C435.853 61.5461 435.753 68.9461 440.853 73.2461C445.753 77.4461 447.953 75.5461 443.153 71.1461C441.553 69.6461 440.653 67.7461 440.653 65.7461C440.653 63.7461 441.553 61.8461 443.153 60.3461C447.453 56.3461 445.553 53.9461 440.953 57.5461Z" fill="black"/>
<path id="Vector_24" d="M448.652 56.8461C448.652 57.4461 449.752 59.2461 451.152 60.9461C452.552 62.5461 453.652 64.7461 453.652 65.8461C453.652 66.9461 452.552 68.9461 451.152 70.3461C448.552 72.9461 447.852 75.7461 449.752 75.7461C450.352 75.7461 452.152 74.4461 453.752 72.8461C456.052 70.5461 456.652 69.0461 456.652 65.7461C456.652 62.4461 456.052 60.9461 453.752 58.6461C450.752 55.6461 448.652 54.9461 448.652 56.8461Z" fill="black"/>
<path id="Vector_25" d="M463.553 58.5461C460.953 60.8461 460.353 62.1461 460.353 65.6461C460.353 71.8461 463.753 74.9461 471.053 75.5461L476.653 75.9461V72.8461C476.653 70.7461 476.153 69.7461 475.153 69.7461C474.353 69.7461 473.653 70.4461 473.653 71.2461C473.653 73.6461 468.853 73.0461 466.153 70.2461C464.753 68.9461 463.653 66.8461 463.653 65.7461C463.653 62.1461 468.053 58.7461 472.653 58.7461C475.553 58.7461 476.653 58.3461 476.653 57.2461C476.653 56.1461 475.453 55.7461 471.653 55.7461C467.653 55.7461 466.053 56.2461 463.553 58.5461Z" fill="black"/>
<path id="Vector_26" d="M481.252 56.9461C481.652 57.6461 483.252 60.1461 484.852 62.4461C486.952 65.5461 487.652 67.8461 487.652 71.1461C487.652 75.0461 487.952 75.7461 489.652 75.7461C491.352 75.7461 491.652 75.0461 491.652 71.2461C491.652 67.7461 490.852 65.5461 488.052 61.2461C485.752 57.7461 483.652 55.7461 482.452 55.7461C481.152 55.7461 480.752 56.1461 481.252 56.9461Z" fill="black"/>
<path id="Vector_27" d="M493.852 58.9461C492.052 61.7461 491.852 64.7461 493.552 64.7461C493.852 64.7461 494.752 63.7461 495.552 62.4461C496.352 61.2461 497.652 59.2461 498.452 57.9461C499.752 55.9461 499.752 55.7461 497.852 55.7461C496.652 55.7461 495.052 57.0461 493.852 58.9461Z" fill="black"/>
<path id="Vector_28" d="M159.852 68.1461C157.052 75.1461 156.952 75.7461 158.652 75.7461C159.952 75.7461 161.252 74.2461 162.652 71.1461C164.852 66.1461 165.052 63.9461 163.752 61.9461C163.252 61.0461 161.952 63.0461 159.852 68.1461Z" fill="black"/>
<path id="Vector_29" d="M267.853 67.8461C265.253 74.1461 265.053 75.3461 266.353 75.5461C268.153 76.0461 269.053 74.8461 271.253 68.9461C272.453 65.9461 272.653 64.0461 271.953 62.5461C271.153 60.6461 270.653 61.2461 267.853 67.8461Z" fill="black"/>
<path id="Vector_30" d="M373.652 68.3461C373.652 74.9461 373.852 75.8461 375.452 75.5461C377.852 75.1461 378.252 67.8461 376.152 63.8461C375.352 62.1461 374.352 60.7461 374.152 60.7461C373.852 60.7461 373.652 64.1461 373.652 68.3461Z" fill="black"/>
<path id="Vector_31" d="M208.352 62.4461C207.952 62.7461 207.652 65.9461 207.652 69.4461C207.652 75.0461 207.852 75.7461 209.652 75.7461C211.452 75.7461 211.652 75.0461 211.652 68.7461C211.652 63.5461 211.352 61.7461 210.352 61.7461C209.552 61.7461 208.652 62.0461 208.352 62.4461Z" fill="black"/>
<path id="Vector_32" d="M260.852 63.7461C259.052 66.6461 259.252 75.7461 261.152 75.7461C262.352 75.7461 262.652 74.3461 262.652 68.7461C262.652 64.8461 262.552 61.7461 262.352 61.7461C262.252 61.7461 261.552 62.6461 260.852 63.7461Z" fill="black"/>
<path id="Vector_33" d="M294.652 68.7461C294.652 74.3461 294.952 75.7461 296.152 75.7461C297.352 75.7461 297.652 74.3461 297.652 68.7461C297.652 63.1461 297.352 61.7461 296.152 61.7461C294.952 61.7461 294.652 63.1461 294.652 68.7461Z" fill="black"/>
<path id="Vector_34" d="M310.353 64.4461C308.553 66.1461 310.253 66.7461 316.653 66.7461C322.253 66.7461 323.653 66.4461 323.653 65.2461C323.653 64.0461 322.253 63.7461 317.353 63.7461C313.853 63.7461 310.653 64.0461 310.353 64.4461Z" fill="black"/>
<path id="Vector_35" d="M469.652 65.7461C469.652 67.3461 470.352 67.7461 473.152 67.7461C475.952 67.7461 476.652 67.3461 476.652 65.7461C476.652 64.1461 475.952 63.7461 473.152 63.7461C470.352 63.7461 469.652 64.1461 469.652 65.7461Z" fill="black"/>
<path id="Vector_36" d="M309.652 74.2461C309.652 75.4461 311.152 75.7461 317.152 75.7461C323.152 75.7461 324.652 75.4461 324.652 74.2461C324.652 73.0461 323.152 72.7461 317.152 72.7461C311.152 72.7461 309.652 73.0461 309.652 74.2461Z" fill="black"/>
<path id="Vector_37" d="M20.6523 76.9461C20.5523 79.9461 19.0523 80.9461 16.2523 79.6461C13.8523 78.5461 13.3523 78.6461 10.6523 81.2461C7.85234 83.9461 7.85234 84.1461 9.25234 86.9461C10.7523 89.7461 10.6523 89.8461 7.65234 90.8461C4.95234 91.8461 4.65234 92.3461 4.65234 95.8461C4.65234 99.0461 5.15234 99.9461 7.15234 100.946C9.85234 102.146 10.1523 102.946 8.65234 105.646C7.35234 108.046 13.3523 114.146 15.6523 112.746C18.0523 111.246 19.2523 111.546 20.4523 114.246C21.4523 116.246 22.3523 116.746 25.5523 116.746C29.0523 116.746 29.5523 116.446 30.5523 113.746C31.5523 110.746 31.6523 110.646 34.4523 112.146C37.2523 113.546 37.4523 113.546 40.1523 110.746C42.6523 108.046 42.8523 107.546 41.7523 105.146C40.7523 102.946 40.8523 102.346 42.0523 101.346C43.3523 100.446 41.9523 98.3461 33.1523 88.2461C22.5523 76.2461 20.6523 74.4461 20.6523 76.9461ZM31.1523 90.2461C38.4523 97.5461 27.4523 108.646 19.9523 101.546C14.9523 96.8461 18.7523 87.7461 25.6523 87.7461C27.5523 87.7461 29.6523 88.6461 31.1523 90.2461Z" fill="black"/>
<path id="Vector_38" fill-rule="evenodd" clip-rule="evenodd" d="M21.2 61.9C23.7761 65.3961 54.8775 100.634 60.3028 106.248L58.4111 111C46.8304 98.3365 26.1495 74.3573 13.4526 59L21.2 61.9ZM106.394 60.4C104.057 58.0299 95.2326 50.0499 84.8 40.9C72.6 30.2 62.1 21.2 61.4 20.7C60.3 17.5 60.3 14.4693 60.3 14.4693L59.1207 13.4996C59.5084 13.818 60.3 14.4693 60.3 14.4693C78.5369 29.5039 107.471 54.5648 116.5 63.463L106.394 60.4Z" fill="black"/>
</g>
</svg>
